<svg version="1.1" id="Layer_1" xmlns="http://www.w3.org/2000/svg" xmlns:xlink="http://www.w3.org/1999/xlink" x="0px" y="0px"
	 width="100%" viewBox="0 0 1024 1024" enable-background="new 0 0 1024 1024" xml:space="preserve">
<path fill="#000000" opacity="1.000000" stroke="none" 
	d="
M581.726074,423.196442 
	C600.073059,431.629211 618.083618,439.895081 636.087952,448.174347 
	C640.233215,450.080597 644.505188,450.964142 649.132507,450.950775 
	C699.462036,450.805084 749.791992,450.804413 800.121765,450.709625 
	C821.065613,450.670197 831.796509,466.371368 824.953247,486.086548 
	C815.785828,512.497620 807.353333,539.163208 798.527466,565.693604 
	C792.016846,585.263977 785.312134,604.769897 778.823914,624.347595 
	C773.590820,640.138062 768.966858,656.142883 763.314331,671.778503 
	C757.235352,688.593750 745.080872,696.331909 727.356812,696.492554 
	C614.871033,697.511780 502.382446,696.594543 389.896088,697.056824 
	C379.354614,697.100159 376.403381,700.124023 376.406372,710.868042 
	C376.408264,717.700867 376.337616,724.534302 376.405487,731.366394 
	C376.483917,739.257996 381.170746,744.135742 389.022095,744.584778 
	C391.016418,744.698853 393.020599,744.658264 395.020264,744.658081 
	C502.012970,744.646912 609.005676,744.609192 715.998352,744.680237 
	C721.975769,744.684204 727.905396,743.795227 733.941895,744.564270 
	C747.307678,746.267090 757.863892,757.874573 757.222107,770.703918 
	C756.550537,784.128540 745.710327,794.315247 731.744934,794.320312 
	C613.419617,794.363342 495.094299,794.404358 376.769073,794.323914 
	C351.270325,794.306641 330.388916,774.660583 327.374420,748.266052 
	C324.395569,722.183899 322.257507,695.983154 318.458893,670.023376 
	C314.247040,641.239685 311.517853,612.284058 307.192413,583.510681 
	C302.903656,554.981628 299.115112,526.351135 296.493988,497.580688 
	C295.218750,483.583405 292.539093,469.717041 290.624847,455.773590 
	C289.816010,449.882233 289.294647,443.949463 288.726410,438.027466 
	C287.998810,430.445068 284.749420,427.323120 277.115143,427.313690 
	C248.783798,427.278625 220.452179,427.363312 192.121048,427.275665 
	C176.582901,427.227600 166.034851,417.472748 165.720047,402.016876 
	C165.428696,387.711700 175.888809,377.072388 188.073029,376.606842 
	C219.388168,375.410400 250.719879,376.265350 282.043762,376.075470 
	C291.331635,376.019165 300.611847,375.561127 309.732635,378.504669 
	C327.044067,384.091492 339.256989,400.624939 339.163269,418.916473 
	C339.130951,425.223206 338.369232,431.569702 340.116730,437.800598 
	C342.537292,446.431274 348.269287,450.803314 357.221954,450.798737 
	C390.886322,450.781525 424.551727,450.634705 458.214203,450.881195 
	C464.967377,450.930634 470.937622,449.347992 476.906494,446.533234 
	C496.333923,437.371674 515.967163,428.638611 535.278320,419.241425 
	C548.130798,412.987152 560.540283,411.508453 573.232849,419.261017 
	C575.771973,420.811920 578.660156,421.791443 581.726074,423.196442 
M482.037842,582.411194 
	C501.408325,591.671875 520.853333,600.781128 540.117126,610.258606 
	C549.378723,614.815308 558.363892,614.677368 567.488281,610.408691 
	C590.258728,599.755981 613.015137,589.073303 635.762573,578.371643 
	C644.874817,574.084717 649.015137,566.818359 648.940796,556.784668 
	C648.780273,535.131470 648.731201,513.476685 648.797913,491.823059 
	C648.828918,481.763885 644.563416,474.693665 635.408081,470.426361 
	C613.681335,460.299561 591.916260,450.248505 570.335938,439.816681 
	C559.426086,434.542847 549.229858,434.903351 538.367615,440.226898 
	C517.300232,450.551941 495.988953,460.393738 474.608734,470.059692 
	C464.942688,474.429718 460.323853,481.669495 460.228027,491.889404 
	C460.040649,511.876312 460.432770,531.872803 459.980591,551.851624 
	C459.675598,565.326904 464.148865,575.197510 477.368774,580.034729 
	C478.765869,580.545898 480.046844,581.374451 482.037842,582.411194 
M753.292542,494.082733 
	C733.494995,494.054718 713.696899,493.937317 693.900085,494.042664 
	C685.958374,494.084930 682.468628,497.640991 682.329041,505.217010 
	C682.237122,510.206543 682.278809,515.199158 682.307495,520.190125 
	C682.355286,528.503906 685.367798,531.697205 693.731750,531.734863 
	C712.531372,531.819458 731.331909,531.770630 750.131653,531.692444 
	C756.190308,531.667236 759.458557,529.429626 761.420837,523.752991 
	C762.990601,519.211792 764.076416,514.504639 765.415039,509.882172 
	C768.325867,499.830597 764.630066,494.602692 753.292542,494.082733 
M409.864868,493.481537 
	C406.711243,493.629181 403.558258,493.887146 400.403870,493.905487 
	C386.601746,493.985779 372.795532,493.819000 358.998199,494.101990 
	C351.238281,494.261139 346.000458,500.246552 347.645416,507.211121 
	C348.637695,511.412231 349.129761,515.683960 350.172668,519.866028 
	C352.524048,529.295227 355.355499,531.674805 364.953186,531.690613 
	C381.916077,531.718506 398.879120,531.778809 415.841827,531.733704 
	C423.460144,531.713440 426.815063,528.410767 426.973480,520.817078 
	C427.087891,515.332581 426.980133,509.841736 426.891418,504.355011 
	C426.794769,498.379242 422.351837,493.815033 416.256317,493.421570 
	C414.435516,493.304016 412.599243,493.426270 409.864868,493.481537 
M421.072723,567.972046 
	C404.444122,568.004028 387.815216,567.990051 371.187012,568.087036 
	C362.588348,568.137207 358.774323,572.385010 359.399841,581.002441 
	C359.507477,582.485474 359.886322,583.947388 360.110657,585.423523 
	C361.380829,593.781799 364.470306,596.545776 373.014648,596.543640 
	C386.814026,596.540100 400.614136,596.274475 414.412628,596.351990 
	C429.790619,596.438293 431.945557,594.452515 431.703857,579.482849 
	C431.585297,572.140320 429.372620,569.548340 421.072723,567.972046 
M743.376282,572.392517 
	C740.803345,569.138367 737.418152,567.902100 733.309875,567.921509 
	C718.829163,567.989807 704.347656,567.868958 689.866943,567.935974 
	C680.245300,567.980530 677.121216,571.270264 677.104431,580.995850 
	C677.101562,582.660339 677.092163,584.325134 677.118225,585.989258 
	C677.219727,592.462646 680.549927,596.450012 687.087280,596.555420 
	C702.229309,596.799744 717.381775,596.758118 732.523621,596.482239 
	C738.932800,596.365540 743.735291,593.046997 744.330017,588.349243 
	C744.968079,583.309875 745.507141,578.102051 743.376282,572.392517 
M385.723999,632.375427 
	C384.724579,632.384338 383.722717,632.351501 382.726105,632.408813 
	C375.092590,632.847473 371.028076,636.984192 371.326202,643.987976 
	C371.573578,649.799622 375.374573,652.707092 382.908203,652.719482 
	C396.734253,652.742188 410.560547,652.754822 424.386353,652.690247 
	C431.949524,652.654968 435.641449,649.208984 435.634216,642.437866 
	C435.627197,635.879211 431.696716,632.401489 424.154144,632.384521 
	C411.660736,632.356384 399.167236,632.375732 385.723999,632.375427 
M610.497925,632.329468 
	C601.343994,632.332581 592.187378,632.200989 583.037109,632.385620 
	C576.782715,632.511780 573.302490,636.418396 573.336853,642.665283 
	C573.371094,648.894531 576.886353,652.614502 583.237793,652.665588 
	C597.217529,652.778137 611.199402,652.810852 625.178711,652.684875 
	C631.975159,652.623596 634.924683,649.060791 634.861023,641.675903 
	C634.810181,635.770813 631.456238,632.542542 624.977234,632.372314 
	C620.486450,632.254333 615.990295,632.337341 610.497925,632.329468 
M495.509216,652.685608 
	C505.674042,652.698914 515.839478,652.784546 526.003479,652.697510 
	C531.792603,652.647888 535.542786,649.327637 535.878906,644.319336 
	C536.327271,637.638672 533.265442,632.781372 527.143982,632.608521 
	C512.494202,632.195068 497.818359,632.235107 483.166260,632.609253 
	C477.326996,632.758362 473.722473,637.834656 474.058289,643.692139 
	C474.373596,649.192078 477.966217,652.480957 484.017242,652.656372 
	C487.513733,652.757690 491.015442,652.678101 495.509216,652.685608 
M710.403503,652.750549 
	C711.736450,652.750793 713.069702,652.768555 714.402344,652.748352 
	C722.232544,652.629761 726.505737,649.065613 726.606689,642.580872 
	C726.700256,636.568481 721.735840,632.374817 714.348206,632.343872 
	C705.017639,632.304749 695.686768,632.347351 686.356018,632.349792 
	C684.353516,632.350281 682.392334,632.437622 680.456055,633.138611 
	C675.190002,635.044800 672.544861,639.356384 673.421997,644.825439 
	C674.168091,649.477478 678.135071,652.669189 683.435913,652.707397 
	C692.099731,652.769836 700.764343,652.740417 710.403503,652.750549 
z"/>
<path fill="#000000" opacity="1.000000" stroke="none" 
	d="
M439.999939,212.332336 
	C399.013794,212.341003 358.527710,212.353302 318.041595,212.348587 
	C315.204071,212.348251 312.412781,212.474869 309.625275,213.164825 
	C303.340424,214.720428 299.435059,218.963348 299.304810,225.502426 
	C299.075867,236.994095 299.055542,248.494415 299.210419,259.987579 
	C299.306427,267.114044 303.682953,271.758759 310.923157,272.567810 
	C315.047058,273.028625 319.239075,272.987244 323.400482,272.988037 
	C371.717163,272.997406 420.033844,272.970215 468.350525,272.956696 
	C475.897064,272.954590 475.941223,272.991058 475.947510,280.369659 
	C475.955444,289.699707 475.830627,299.031281 475.972076,308.359039 
	C476.033813,312.431122 474.893494,314.324005 470.322449,314.315125 
	C413.009064,314.203674 355.693207,314.539764 298.382965,314.105103 
	C279.896545,313.964905 267.621002,303.109497 259.623047,287.013580 
	C256.667297,281.065125 255.590759,274.803864 255.653717,268.166626 
	C255.808578,251.840485 255.665405,235.511673 255.684128,219.183990 
	C255.710800,195.903717 273.269165,175.379059 296.290955,171.655838 
	C300.076080,171.043701 303.867950,170.719376 307.715607,170.720657 
	C361.530457,170.738571 415.345276,170.704971 469.160126,170.694031 
	C475.910339,170.692657 476.026550,170.761307 475.972778,177.781372 
	C475.896271,187.772339 475.529236,197.764069 475.632904,207.751877 
	C475.670563,211.378647 474.342499,212.364624 470.988007,212.327454 
	C460.826569,212.214874 450.662811,212.314743 439.999939,212.332336 
z"/>
<path fill="#000000" opacity="1.000000" stroke="none" 
	d="
M708.000122,170.676422 
	C737.823669,170.674835 767.148071,170.539398 796.470459,170.723282 
	C813.494507,170.830032 827.394836,177.843262 837.681885,191.416000 
	C844.109009,199.895905 847.088379,209.707458 846.980103,220.382095 
	C846.795959,238.536331 847.564697,256.772827 846.065857,274.819672 
	C844.703796,291.218781 834.481201,302.674286 819.979553,310.154877 
	C814.086609,313.194672 807.669250,314.247711 801.125549,314.254242 
	C746.810425,314.308380 692.495117,314.253510 638.180298,314.388794 
	C633.693787,314.399963 631.890808,313.148926 632.033264,308.488434 
	C632.348877,298.168732 632.315674,287.837128 632.332275,277.510254 
	C632.338013,273.934723 633.697266,272.777222 637.459412,272.788605 
	C686.441956,272.936432 735.425049,272.896484 784.408020,272.891693 
	C786.239380,272.891541 788.076721,272.840698 789.901062,272.690125 
	C797.977600,272.023529 803.366150,266.199371 803.404968,258.182648 
	C803.452576,248.362946 803.551208,238.543396 803.568970,228.723663 
	C803.588684,217.824463 798.400024,212.561890 787.351013,212.399216 
	C779.521973,212.283951 771.689880,212.363602 763.859192,212.367493 
	C722.039978,212.388275 680.220520,212.362335 638.401794,212.513931 
	C634.251465,212.528976 632.413757,211.706573 632.558533,207.063370 
	C632.880432,196.743515 632.812866,186.403366 632.585205,176.078522 
	C632.494080,171.948944 633.903931,170.576584 638.023315,170.602234 
	C661.181458,170.746338 684.341003,170.674667 708.000122,170.676422 
z"/>
<path fill="#000000" opacity="1.000000" stroke="none" 
	d="
M579.409485,119.419586 
	C579.438416,120.527679 579.492065,121.194313 579.480774,121.859856 
	C579.260864,134.796616 579.467468,132.902527 591.017700,132.916473 
	C598.965454,132.926056 606.744873,133.080017 612.650513,139.622330 
	C615.554382,142.839218 617.264465,146.420822 617.262146,150.854065 
	C617.238831,195.513626 617.226318,240.173279 617.333313,284.832611 
	C617.342773,288.805939 616.300293,290.380615 611.999817,290.365509 
	C574.173035,290.232819 536.345459,290.314880 498.518097,290.316925 
	C491.692291,290.317322 491.677155,290.282654 491.668274,283.267090 
	C491.611816,238.609009 491.486023,193.950729 491.593872,149.293030 
	C491.609955,142.636017 496.159668,138.608200 501.747589,135.618790 
	C508.104797,132.217804 514.959900,132.705429 521.777161,132.693756 
	C528.958435,132.681473 528.937500,132.669693 529.063232,125.590218 
	C529.229004,116.264000 529.571350,106.938156 529.552185,97.612740 
	C529.544128,93.706444 531.226685,92.122124 534.885925,92.115799 
	C547.883545,92.093330 560.881104,92.068939 573.878723,92.052544 
	C577.837830,92.047546 579.489441,93.964401 579.392395,97.982803 
	C579.223450,104.976906 579.382446,111.978920 579.409485,119.419586 
M543.370300,247.238174 
	C571.628052,254.426025 602.747498,233.362030 593.245728,194.669693 
	C587.626282,171.786621 558.975891,160.087357 536.046326,170.570511 
	C520.068054,177.875595 512.965942,194.278580 513.519958,208.687164 
	C514.240845,227.436356 525.479248,241.582886 543.370300,247.238174 
z"/>
<path fill="#000000" opacity="1.000000" stroke="none" 
	d="
M373.631287,902.157104 
	C364.490570,881.711365 365.551880,861.887451 376.238922,842.892517 
	C384.604980,828.022766 398.218201,819.303833 414.417786,815.193726 
	C460.158844,803.588318 501.497284,845.576660 489.282043,891.174988 
	C480.097351,925.460571 447.904022,941.690735 415.205688,934.901306 
	C396.097870,930.933777 382.933319,919.262390 373.631287,902.157104 
z"/>
<path fill="#000000" opacity="1.000000" stroke="none" 
	d="
M632.019836,818.816528 
	C668.040100,803.605103 706.492981,820.987671 716.925415,859.219055 
	C726.740601,895.188232 705.089966,930.448425 666.456726,935.596313 
	C645.058838,938.447632 626.507507,932.739319 612.238831,916.749573 
	C583.631592,884.691833 594.183533,835.277771 632.019836,818.816528 
z"/>
<path fill="#000000" opacity="1.000000" stroke="none" 
	d="
M375.999878,257.366455 
	C356.854950,257.355377 338.210052,257.352814 319.565155,257.330139 
	C313.033813,257.322174 312.971344,257.244843 312.952301,250.549530 
	C312.935272,244.556580 313.176910,238.551086 312.860413,232.574631 
	C312.620087,228.036438 314.556610,226.794708 318.742004,226.889893 
	C334.047943,227.237946 349.358276,227.519180 364.667725,227.563965 
	C399.460144,227.665726 434.253021,227.608444 469.045715,227.625443 
	C475.884399,227.628799 475.904022,227.648682 475.968567,234.621307 
	C476.017883,239.948029 476.047729,245.275543 476.016846,250.602280 
	C475.978180,257.270813 475.892914,257.354065 469.391449,257.356689 
	C438.427582,257.369110 407.463745,257.365143 375.999878,257.366455 
z"/>
<path fill="#000000" opacity="1.000000" stroke="none" 
	d="
M743.000122,227.610718 
	C756.815796,227.472641 770.132385,227.385406 783.446655,227.165833 
	C787.158264,227.104630 788.822205,228.150818 788.546082,232.343719 
	C788.109253,238.977173 788.237671,245.659592 788.389221,252.315323 
	C788.469788,255.853790 787.401733,257.379211 783.590088,257.373749 
	C734.803223,257.303711 686.016113,257.326599 637.229309,257.423706 
	C633.582642,257.430939 632.238831,256.339050 632.429260,252.526611 
	C632.761292,245.882248 632.824829,239.198685 632.497925,232.556305 
	C632.281433,228.156052 633.679810,226.778854 638.117737,226.868088 
	C658.921692,227.286377 679.731506,227.456253 700.539917,227.603424 
	C714.525940,227.702362 728.513306,227.615356 743.000122,227.610718 
z"/>
<path fill="#000000" opacity="1.000000" stroke="none" 
	d="
M491.615051,320.036743 
	C491.608795,305.733551 491.608765,305.756348 505.497955,305.767120 
	C540.491150,305.794312 575.484375,305.800629 610.477600,305.811127 
	C617.280945,305.813171 617.294922,305.804474 617.298645,312.827026 
	C617.302795,320.658844 617.153442,328.493317 617.320496,336.321320 
	C617.399780,340.037628 615.907043,341.263153 612.305603,341.256165 
	C573.646484,341.181183 534.987122,341.183868 496.327972,341.242859 
	C492.910645,341.248047 491.518829,339.965240 491.613770,336.524902 
	C491.760803,331.196991 491.629547,325.861359 491.615051,320.036743 
z"/>
<path fill="#000000" opacity="1.000000" stroke="none" 
	d="
M820.350525,362.000061 
	C820.350464,385.750183 820.350464,409.000275 820.350464,431.512848 
	C818.878601,432.894196 818.034973,432.875427 817.268738,432.503571 
	C811.741760,429.821564 805.897888,428.788422 799.811951,429.272064 
	C796.411011,429.542328 794.915955,428.206512 794.921204,424.767944 
	C794.966492,395.143127 794.968323,365.518188 794.948547,335.893311 
	C794.946228,332.439972 796.266418,330.606201 799.974854,330.729156 
	C806.677734,330.951447 812.860901,328.062592 820.350586,326.625916 
	C820.350586,338.687622 820.350586,350.093842 820.350525,362.000061 
z"/>
<path fill="#000000" opacity="1.000000" stroke="none" 
	d="
M565.000000,353.756958 
	C574.611267,353.756470 583.722534,353.756470 592.660767,353.756470 
	C593.656128,356.786682 591.790161,358.135620 590.649109,359.599274 
	C579.907471,373.378510 569.001282,387.030212 558.336548,400.868225 
	C555.634949,404.373749 553.845886,405.041229 550.809448,401.158539 
	C539.328552,386.477875 527.605164,371.986877 515.982117,357.417236 
	C515.375610,356.656982 514.586975,355.929169 515.297913,353.757446 
	C531.466431,353.757446 547.983215,353.757446 565.000000,353.756958 
z"/>
<path fill="#000000" opacity="1.000000" stroke="none" 
	d="
M281.928528,327.084778 
	C289.039490,328.682526 295.824249,330.362762 302.842896,330.601654 
	C305.399475,330.688660 306.384064,331.807434 306.367157,334.279083 
	C306.319366,341.272797 306.322906,348.267456 306.388153,355.260986 
	C306.413879,358.013763 305.163818,358.846802 302.633087,358.177704 
	C296.862427,356.652069 291.102509,357.022400 285.373138,358.374634 
	C283.130676,358.903900 281.064606,358.858337 281.088531,356.002899 
	C281.168976,346.406677 279.997742,336.784210 281.928528,327.084778 
z"/>
<path fill="#000000" opacity="1.000000" stroke="none" 
	d="
M631.163696,511.004700 
	C631.167175,526.321533 631.099915,541.140320 631.222778,555.957397 
	C631.253723,559.688965 630.216736,562.080688 626.548218,563.757751 
	C607.029053,572.681091 587.619934,581.845215 568.175171,590.931335 
	C565.485657,592.188110 563.330566,592.724670 563.367737,588.450745 
	C563.534241,569.308105 563.725037,550.164429 563.650269,531.022095 
	C563.634277,526.931274 564.985535,524.864441 568.775024,523.148193 
	C587.265991,514.773865 605.592773,506.037384 623.995667,497.467804 
	C626.038635,496.516418 627.947021,494.888611 631.163391,495.818237 
	C631.163391,500.616394 631.163391,505.561218 631.163696,511.004700 
z"/>
<path fill="#000000" opacity="1.000000" stroke="none" 
	d="
M477.738342,539.999512 
	C477.737640,524.722107 477.737640,509.944550 477.737640,495.631836 
	C479.490021,494.271149 480.493164,494.934052 481.552460,495.435272 
	C501.110870,504.688538 520.619812,514.050110 540.285522,523.069824 
	C544.241333,524.884155 545.602905,527.083496 545.558777,531.359558 
	C545.353088,551.306824 545.467529,571.257324 545.467529,591.435608 
	C542.186340,592.098938 539.838318,590.181091 537.442627,589.056335 
	C519.515381,580.639404 501.698730,571.986938 483.763550,563.587341 
	C479.486603,561.584351 477.221222,558.975159 477.652679,553.985901 
	C478.038757,549.521301 477.737183,544.997253 477.738342,539.999512 
z"/>
<path fill="#000000" opacity="1.000000" stroke="none" 
	d="
M507.820526,488.284882 
	C503.530212,485.535400 498.578461,484.732788 493.831085,480.992645 
	C511.133881,471.985107 528.091125,464.680481 545.522888,456.505676 
	C545.522888,473.230255 545.522888,489.039124 545.522888,506.038605 
	C532.611877,499.947510 520.391785,494.182312 507.820526,488.284882 
z"/>
<path fill="#000000" opacity="1.000000" stroke="none" 
	d="
M563.640076,479.000580 
	C563.639160,471.560516 563.639160,464.620270 563.639160,456.432037 
	C581.478821,464.657715 598.349365,472.436523 615.219849,480.215302 
	C615.254578,480.755005 615.289307,481.294678 615.324036,481.834381 
	C599.007507,490.730164 581.525574,497.198944 563.640991,506.365479 
	C563.640991,496.550964 563.640991,488.025696 563.640076,479.000580 
z"/>
<path fill="#000000" opacity="1.000000" stroke="none" 
	d="
M580.123657,208.862793 
	C577.911682,224.225311 566.703430,233.233551 551.460083,232.313141 
	C539.356384,231.582291 529.281067,220.078995 528.974243,206.640350 
	C528.679504,193.731003 541.681580,181.964325 555.284180,182.830231 
	C569.565613,183.739380 579.454834,193.924377 580.123657,208.862793 
z"/>
</svg>